<svg xmlns="http://www.w3.org/2000/svg" width="132" height="34" viewBox="0 0 132 34">
    <g fill="none" fill-rule="evenodd">
        <g fill="#1F1F1F">
            <g>
                <path d="M6.329 11.327L9.329 11.327 4.589 17.011 9.594 23.642 6.461 23.642 2.467 18.105 2.434 18.105 2.434 23.642 0 23.642 0 11.327 2.434 11.327 2.434 16.521 2.467 16.521zM19.155 11c3.729 0 6.182 2.807 6.182 6.468 0 3.624-2.37 6.5-6.182 6.5-3.812 0-6.182-2.874-6.182-6.5 0-3.659 2.453-6.468 6.182-6.468zm0 2.368c-2.304 0-3.663 2.01-3.663 4.002 0 1.894.961 4.23 3.663 4.23 2.701 0 3.662-2.336 3.662-4.23 0-1.99-1.359-4.002-3.662-4.002zM32.647 21.551L36.094 21.551 36.094 23.644 30.211 23.644 30.211 11.327 32.645 11.327zM46.508 11c3.729 0 6.181 2.807 6.181 6.468 0 3.624-2.37 6.5-6.181 6.5-3.812 0-6.182-2.874-6.182-6.5 0-3.659 2.453-6.468 6.182-6.468zm0 2.368c-2.304 0-3.663 2.01-3.663 4.002 0 1.894.961 4.23 3.663 4.23 2.701 0 3.662-2.336 3.662-4.23 0-1.99-1.359-4.002-3.662-4.002zM56.738 11.002L58.499 11.002 65.076 19.609 65.109 19.609 65.109 11.327 67.543 11.327 67.543 23.887 65.787 23.887 59.209 15.279 59.176 15.279 59.176 23.642 56.742 23.642zM93.066 23.642L92.071 15.998 92.038 15.998 89.204 23.807 88.359 23.807 85.624 15.998 85.591 15.998 84.483 23.642 82.03 23.642 84.135 11.002 85.858 11.002 88.941 19.117 91.893 11.002 93.65 11.002 95.522 23.644 93.07 23.644zM105.832 11.002l4.74 12.642h-2.602l-.961-2.597-4.342-.002-1.028 2.597H99.07l4.873-12.64h1.889zm-1.063 3.608h-.03l-1.376 4.475h2.966l-1.56-4.475zM117.268 21.551L120.716 21.551 120.716 23.644 114.832 23.644 114.832 11.327 117.266 11.327zM127.553 21.551L131 21.551 131 23.644 125.117 23.644 125.117 11.327 127.551 11.327z" transform="translate(-44 -44) translate(44 44)"/>
            </g>
        </g>
    </g>
</svg>
